<svg width="448" height="448" viewBox="0 0 448 448" fill="none" xmlns="http://www.w3.org/2000/svg">
<path d="M190.4 94.5429C201.451 91.5889 212.725 90 224 90C235.275 90 246.549 91.5889 257.6 94.5429C324.96 112.549 384 181.275 384 250H64C64 181.275 123.04 112.549 190.4 94.5429Z" fill="#262626"/>
<path d="M224 64C201.333 64 192.155 80.6667 190.4 89C198.822 86.2222 212.333 84 224 84C235.667 84 249.178 85.1111 257.6 87.3333C255.844 79.5556 246.667 64 224 64Z" fill="#262626"/>
<path d="M202.333 117.333C172.333 127.333 142.333 144 124 169" stroke="#E6E6E6" stroke-width="16" stroke-linecap="round"/>
<path d="M192.5 324C178.5 300.5 175 289 89 260H124C190.5 270 227.5 302 258.5 300.5C290.283 298.962 305 270 339 260H359C319.5 281.5 302.5 305 289 339L264 364C235.5 360 206.5 347.5 192.5 324Z" fill="#262626"/>
<path d="M301 336C291 346 275 362 261 376C262 379 266 384 269 384C272 384 309 347 309 344C309 341 304 337 301 336Z" fill="#262626"/>
</svg>
